<?xml version="1.0" encoding="UTF-8"?>
<svg version="1.1" xmlns="http://www.w3.org/2000/svg" width="666" height="375">
<path d="M0 0 C96.03 0 192.06 0 291 0 C291 4.95 291 9.9 291 15 C284.4 15 277.8 15 271 15 C271 49.32 271 83.64 271 119 C265.72 119 260.44 119 255 119 C251.1875 114.25 251.1875 114.25 249.6796875 111.2109375 C241.04713267 94.70870477 222.31804735 83.78484217 205.3359375 77.68359375 C201.03520046 76.34393888 196.8343435 75.1333508 192.3828125 74.421875 C188.75123361 72.89543769 188.37295686 72.54434236 186.71484375 69.2265625 C186.09483465 67.70364036 185.50302834 66.16898214 184.9375 64.625 C184.61845703 63.85671875 184.29941406 63.0884375 183.97070312 62.296875 C181.78641868 56.69813261 181.78641868 56.69813261 182.63330078 53.92993164 C184.38312941 51.45897857 186.10830129 50.50622581 188.77734375 49.08203125 C190.24457886 48.29082886 190.24457886 48.29082886 191.74145508 47.48364258 C193.32349731 46.656427 193.32349731 46.656427 194.9375 45.8125 C196.02635498 45.23588623 197.11520996 44.65927246 198.23706055 44.06518555 C201.48237687 42.35873818 204.73812494 40.67454548 208 39 C208.84401367 38.56429687 209.68802734 38.12859375 210.55761719 37.6796875 C218.25448584 33.74826368 226.00021042 30.31187053 234.14453125 27.40234375 C235.38098389 26.96043701 236.61743652 26.51853027 237.89135742 26.06323242 C240.34639714 25.19972241 242.80878423 24.35677638 245.27856445 23.53637695 C246.39577881 23.14796631 247.51299316 22.75955566 248.6640625 22.359375 C249.66904785 22.02389648 250.6740332 21.68841797 251.70947266 21.34277344 C252.46534668 20.8996582 253.2212207 20.45654297 254 20 C254.33 18.35 254.66 16.7 255 15 C207.15 15.33 159.3 15.66 110 16 C117.34619655 24.81543586 123.4867922 28.16086186 134.9375 29.84326172 C137.21189969 30.01610317 139.35186 29.90377357 141.625 29.72265625 C153.57606438 28.79287006 153.57606438 28.79287006 158.02734375 32.56640625 C160.9635239 36.45495602 163.09327405 40.62509926 162.8984375 45.5859375 C162.15317507 47.92000114 161.15867054 49.84082664 160 52 C157.45946882 57.96195006 156.26764104 63.37124586 155.6875 69.8125 C155.60483887 70.72394775 155.52217773 71.63539551 155.43701172 72.57446289 C154.4246394 85.91171875 156.02125802 98.5506554 160.29296875 111.21484375 C161.00370288 114.01458647 161.00684887 115.3385842 160 118 C158.62705778 118.34171006 157.25149882 118.67291117 155.875 119 C155.10929688 119.185625 154.34359375 119.37125 153.5546875 119.5625 C150.66526648 120.0573244 147.92602801 120.06784992 145 120 C138.35609304 96.10128613 133.9141853 70.95351149 143 47 C142.22398437 46.90203125 141.44796875 46.8040625 140.6484375 46.703125 C123.00149742 44.26035048 107.68553616 39.59366152 96.46484375 25.00390625 C95.27688042 23.35928849 94.13328776 21.68276062 93 20 C82.70917105 25.16497879 72.4820633 30.52474527 67.71484375 41.53515625 C66.536946 45.59665068 66.71920862 47.94416062 68 52 C70.318451 54.46802849 71.91693018 54.95905922 75.2734375 55.0859375 C83.7160718 54.59236811 89.18391696 51.62122869 95.4375 46.125 C99.28118823 43.04609365 99.28118823 43.04609365 102.25390625 42.85546875 C104.64877977 43.34277345 106.73872594 44.07528655 109 45 C109.81210937 45.26554687 110.62421875 45.53109375 111.4609375 45.8046875 C115.78071496 47.38441194 117.59675837 48.31952975 120 52.375 C123.40779072 64.72824135 123.71917023 78.09945672 117.62890625 89.5859375 C112.36473795 97.99345809 105.01554005 103.05352168 95.5625 105.9375 C77.41541218 109.74673226 59.55704185 107.14088654 44 97 C24.35358876 82.25202373 11.7958785 56.31246889 7.34375 32.48828125 C7.2303125 31.66714844 7.116875 30.84601563 7 30 C8.35129647 29.51279787 9.70624316 29.03571816 11.0625 28.5625 C11.81660156 28.29566406 12.57070313 28.02882812 13.34765625 27.75390625 C16.53970842 26.84659245 19.71120235 26.41462198 23 26 C23.22550537 26.72888428 23.45101074 27.45776855 23.68334961 28.20874023 C33.65611688 62.02983294 33.65611688 62.02983294 58 86 C58.763125 86.4125 59.52625 86.825 60.3125 87.25 C66.47666055 90.02387225 72.46262433 90.40818959 79.125 90.5 C79.9600708 90.51853027 80.7951416 90.53706055 81.65551758 90.55615234 C88.77554847 90.48458014 94.6897913 88.5262119 100.375 84.1875 C105.86204061 76.80109918 105.33539908 69.95639765 105 61 C103.89140625 61.56589844 102.7828125 62.13179687 101.640625 62.71484375 C100.17719097 63.45594175 98.71364333 64.19681544 97.25 64.9375 C96.52039063 65.31068359 95.79078125 65.68386719 95.0390625 66.06835938 C94.33007812 66.42607422 93.62109375 66.78378906 92.890625 67.15234375 C92.24125977 67.48226318 91.59189453 67.81218262 90.92285156 68.15209961 C83.38669899 71.47524053 72.68980392 71.34325248 64.8359375 69.09375 C57.95115784 65.84895959 53.85240897 61.76264396 51.1875 54.5625 C48.95396755 46.90467446 49.97332979 40.28005903 53 33 C56.77702116 26.37810713 63.1382112 19.4308944 70 16 C46.9 15.67 23.8 15.34 0 15 C0 10.05 0 5.1 0 0 Z M248.87109375 37.96875 C247.83662109 38.37480469 246.80214844 38.78085938 245.73632812 39.19921875 C244.64771484 39.62847656 243.55910156 40.05773437 242.4375 40.5 C241.34501953 40.92925781 240.25253906 41.35851562 239.12695312 41.80078125 C236.4173725 42.86568193 233.70842196 43.9321566 231 45 C233.84628326 48.04533149 237.01660254 49.62644676 240.75 51.375 C246.09671717 53.90948281 250.0593646 56.47097472 255 60 C255 52.08 255 44.16 255 36 C252.9108451 36 250.77399966 37.22006571 248.87109375 37.96875 Z M208.1875 56.4375 C207.59001953 56.77587891 206.99253906 57.11425781 206.37695312 57.46289062 C204.91061178 58.29577251 203.45425244 59.14618561 202 60 C204.51547872 61.67698581 206.4276791 62.63360793 209.2109375 63.6640625 C227.29945758 70.51823267 241.48022029 78.91206036 254 94 C254.33 94 254.66 94 255 94 C256.0903025 83.95532416 256.0903025 83.95532416 253.7109375 74.40625 C251.62261841 72.23795273 249.51366111 70.66100954 247 69 C245.94683594 68.25492188 244.89367187 67.50984375 243.80859375 66.7421875 C226.82200761 54.52879721 226.82200761 54.52879721 208.1875 56.4375 Z " fill="#16A9E9" transform="translate(340,127)"/>
<path d="M0 0 C5.26495441 0.41825751 7.50950658 1.88855512 11.20126343 5.59999084 C11.68824916 6.08270445 12.17523488 6.56541805 12.67697775 7.06275934 C14.30115735 8.67872158 15.90685066 10.31186757 17.51318359 11.94555664 C18.67554112 13.1093249 19.8390015 14.27199254 21.003479 15.43363953 C24.15894471 18.58767069 27.29875709 21.75687988 30.43599653 24.92902684 C33.71820453 28.2424915 37.01457778 31.5418018 40.30947876 34.84263611 C46.54547958 41.09417732 52.76862545 47.35835462 58.98726046 53.62716526 C66.06807445 60.76386637 73.16309157 67.8863748 80.259341 75.00772297 C94.85542678 89.65607136 109.43357215 104.32216313 124 119 C124.66 118.67 125.32 118.34 126 118 C126 132.52 126 147.04 126 162 C122.12131982 160.06065991 120.13660063 158.38364955 117.11517334 155.35568237 C116.63806357 154.88028145 116.16095379 154.40488053 115.66938615 153.91507351 C114.07395446 152.32293269 112.48577032 150.72375541 110.89746094 149.12451172 C109.75445795 147.98094453 108.61101427 146.83781767 107.46716309 145.69509888 C104.36383097 142.59234093 101.26670692 139.48345212 98.17064953 136.3734374 C94.93376811 133.12405936 91.69122771 129.88033856 88.44927979 126.63601685 C82.31135137 120.49187053 76.17853932 114.34264344 70.04754281 108.19158089 C63.06724773 101.18893648 56.08127747 94.19196555 49.09482145 87.19546866 C34.72355101 72.8032892 20.3594331 58.40398925 6 44 C5.34 44.66 4.68 45.32 4 46 C4 31.81 4 17.62 4 3 C2.68 2.67 1.36 2.34 0 2 C-0.33 2.99 -0.66 3.98 -1 5 C-0.67 3.35 -0.34 1.7 0 0 Z " fill="#21C8F8" transform="translate(89,106)"/>
<path d="M0 0 C0.66 0.33 1.32 0.66 2 1 C1.44830304 10.06966426 0.57528458 19.01859458 -0.71484375 28.01171875 C-0.88594162 29.23026047 -1.05703949 30.44880219 -1.23332214 31.70426941 C-1.69901094 35.01009684 -2.16917638 38.31521763 -2.64206696 41.62001801 C-2.9406191 43.70932792 -3.23750585 45.79886808 -3.53387451 47.88848877 C-9.22940616 88.03644383 -15.00814949 128.18885376 -21.4977417 168.21710205 C-21.78703158 170.00668421 -22.07281606 171.79683715 -22.35479736 173.58758545 C-22.73416663 175.986221 -23.12822408 178.38192706 -23.52734375 180.77734375 C-23.6331929 181.46240494 -23.73904205 182.14746613 -23.84809875 182.85328674 C-24.49958266 186.63434645 -25.40452127 189.14528843 -28 192 C-29.65 191.67 -31.3 191.34 -33 191 C-34.11348479 187.65954562 -34.12049547 185.1780602 -34.11303711 181.65820312 C-34.11284388 181.0160788 -34.11265064 180.37395447 -34.11245155 179.71237183 C-34.11014892 177.56861883 -34.100198 175.42497822 -34.08984375 173.28125 C-34.08580094 171.75500543 -34.08197554 170.22876027 -34.07835388 168.70251465 C-34.01287708 147.09386289 -33.73445688 125.48586249 -33.40161133 103.87988281 C-33.36142039 101.24137388 -33.32140172 98.60286249 -33.2815876 95.96434784 C-33.25541958 94.23422568 -33.22896682 92.5041078 -33.20222282 90.77399445 C-33.06143619 81.53172698 -32.97156343 72.29879981 -33.0917511 63.05541992 C-33.14252159 59.14229953 -33.15544168 55.22957227 -33.1635437 51.31616211 C-33.17921388 49.63759649 -33.21574914 47.95906326 -33.27566528 46.28149414 C-33.72469212 33.67152779 -33.72469212 33.67152779 -29.35400391 28.49023438 C-27.30937044 26.34627646 -25.15274081 24.41730922 -22.8762207 22.52441406 C-20.14617532 20.1282958 -18.69109672 18.16663839 -17 15 C-12.00061503 9.23147888 -6.11367901 4.52865112 0 0 Z " fill="#0CA6E9" transform="translate(248,78)"/>
<path d="M0 0 C2.475 0.495 2.475 0.495 5 1 C4.9996727 1.84201462 4.9993454 2.68402924 4.99900818 3.55155945 C4.99787885 7.01898517 4.99725041 10.4864106 4.99672127 13.95383644 C4.99607796 16.5120053 4.99467589 19.07017313 4.99327087 21.62834167 C4.98922862 32.70891333 5.01044597 43.78913036 5.05126953 54.86962891 C5.09570833 67.23531264 5.10145978 79.60057411 5.07515907 91.9663105 C5.06101706 99.16279475 5.06460786 106.35853619 5.10620117 113.55493164 C5.14312016 119.95260391 5.14832654 126.34939596 5.11582941 132.74710578 C5.0998663 136.09907447 5.10372749 139.44800532 5.13676643 142.80005836 C5.17076367 146.50722376 5.14866013 150.21016984 5.11352539 153.91723633 C5.13653214 154.99820587 5.15953888 156.07917542 5.1832428 157.19290161 C5.02742707 164.82073825 2.70185115 168.50439621 -2.69197941 173.84055614 C-3.4536262 174.55317262 -4.215273 175.26578909 -5 176 C-6.29678006 177.34927077 -7.58940448 178.70256828 -8.875 180.0625 C-18.58576793 189.57827259 -18.58576793 189.57827259 -24 193 C-26.265625 192.87109375 -26.265625 192.87109375 -28 192 C-32.58733028 182.82533943 -27.56468706 166.66886955 -26.08203125 156.91796875 C-25.76740365 154.80842499 -25.45319025 152.69881941 -25.13935852 150.5891571 C-21.37016887 125.39146978 -17.32998748 100.2350224 -13.29180908 75.0793457 C-12.06865889 67.45507168 -10.85015066 59.83005452 -9.63094044 52.20514965 C-8.68557307 46.29334722 -7.73958034 40.38164755 -6.79142761 34.47029114 C-6.61954831 33.39755038 -6.44766901 32.32480963 -6.27058125 31.21956158 C-5.94195286 29.17007579 -5.61258038 27.12070914 -5.28237438 25.07147694 C-4.62313885 20.96768866 -3.97094854 16.86465641 -3.38565063 12.74960327 C-3.21947235 11.58853058 -3.05329407 10.42745789 -2.88208008 9.23120117 C-2.75472977 8.2903215 -2.62737946 7.34944183 -2.49617004 6.38005066 C-1.99380672 3.97029179 -1.20602816 2.13547402 0 0 Z " fill="#0CA6E9" transform="translate(89,108)"/>
<path d="M0 0 C10.23 0 20.46 0 31 0 C28.84719168 17.83358634 26.36585712 35.60201727 23.69592285 53.36420059 C23.37068699 55.52870386 23.04634345 57.69333939 22.72216797 59.85800171 C19.57524099 80.8576861 16.34180891 101.84291943 13 122.8125 C12.81072937 124.0097168 12.62145874 125.20693359 12.42645264 126.44042969 C11.89398662 129.80104244 11.35450014 133.16044466 10.8125 136.51953125 C10.58030258 137.99139641 10.58030258 137.99139641 10.34341431 139.49299622 C8.8281709 148.77065575 8.8281709 148.77065575 7 153 C4.375 154.375 4.375 154.375 2 155 C0 153 0 153 -0.24609566 150.36444664 C-0.24425207 149.23801561 -0.24240849 148.11158459 -0.24050903 146.95101929 C-0.24325836 145.66090439 -0.24600769 144.37078949 -0.24884033 143.0415802 C-0.24176155 141.60372833 -0.23449192 140.16587739 -0.22705078 138.72802734 C-0.2264869 137.22036242 -0.22680278 135.71269695 -0.22793579 134.20503235 C-0.22851119 130.10399411 -0.2167267 126.00307213 -0.20278788 121.90206099 C-0.19031163 117.61925306 -0.18911248 113.33644267 -0.18673706 109.05361938 C-0.18051314 100.93986209 -0.16409001 92.82615849 -0.14403808 84.71242487 C-0.12170742 75.47676973 -0.11069279 66.24111206 -0.10064721 57.00543666 C-0.07972454 38.00358778 -0.04303696 19.00181255 0 0 Z " fill="#15A9EA" transform="translate(284,126)"/>
<path d="M0 0 C4.67084033 2.67783139 8.07281168 5.8963293 9.640625 11.12890625 C10.3832031 16.37336405 10.46674803 21.29565234 7.953125 26.06640625 C4.24788738 30.97334256 0.72236044 33.84238529 -5.359375 35.12890625 C-11.68154081 35.23292726 -16.25536099 33.83181837 -21.359375 30.12890625 C-25.80428549 24.51428248 -26.952005 20.24046629 -26.359375 13.12890625 C-24.40003756 7.23969771 -21.3916702 3.6622199 -16.359375 0.12890625 C-11.09387166 -1.62626153 -5.26334027 -1.94325311 0 0 Z " fill="#1FC8F8" transform="translate(310.359375,79.87109375)"/>
<path d="M0 0 C0.66 0 1.32 0 2 0 C2.07623903 26.67457049 1.87878097 53.33976611 1.53643799 80.01202393 C1.47437734 84.8882029 1.41506397 89.76441538 1.35546875 94.640625 C1.23955617 104.09378321 1.12078402 113.54690286 1 123 C0.01 123 -0.98 123 -2 123 C-1.505 122.505 -1.505 122.505 -1 122 C-0.89190884 120.41886387 -0.85315956 118.83293938 -0.84178162 117.24815369 C-0.8319928 116.22025223 -0.82220398 115.19235077 -0.81211853 114.13330078 C-0.80636307 112.99610596 -0.8006076 111.85891113 -0.79467773 110.68725586 C-0.78477814 109.49717422 -0.77487854 108.30709259 -0.76467896 107.08094788 C-0.73842897 103.80839691 -0.71659269 100.53585135 -0.69667697 97.26325679 C-0.67485467 93.84658439 -0.64744767 90.42995703 -0.62062073 87.01332092 C-0.57064288 80.53934001 -0.52572302 74.06533416 -0.48259836 67.59130436 C-0.43326941 60.22258881 -0.37833523 52.85391843 -0.32291877 45.48524654 C-0.20902059 30.32353977 -0.10219871 15.16179048 0 0 Z " fill="#21C8F8" transform="translate(93,152)"/>
<path d="M0 0 C0.33 0 0.66 0 1 0 C1 37.95 1 75.9 1 115 C0.67 115 0.34 115 0 115 C0 77.05 0 39.1 0 0 Z " fill="#21C8F8" transform="translate(214,109)"/>
<path d="M0 0 C0.66 0 1.32 0 2 0 C0.48917858 3.87896122 -1.80534396 5.40510906 -5.0546875 7.8984375 C-10.94341967 13.66850504 -11.1132421 18.96161624 -11.23944092 26.96136475 C-11.23430034 29.85055294 -11.18091165 32.73639186 -11.125 35.625 C-11.12305551 37.60286534 -11.12561912 39.58074053 -11.1328125 41.55859375 C-11.14059213 46.3740803 -11.08712314 51.18533351 -11 56 C-11.33 56 -11.66 56 -12 56 C-12.24876473 49.91712826 -12.42936573 43.83726552 -12.54931641 37.75048828 C-12.59935131 35.68420803 -12.66740685 33.61827731 -12.75439453 31.55322266 C-13.49657254 13.4702738 -13.49657254 13.4702738 -9.79980469 8.35449219 C-7.31874244 5.82343372 -5.0493829 3.79809527 -2 2 C-1.34 2 -0.68 2 0 2 C0 1.34 0 0.68 0 0 Z " fill="#4CBDEF" transform="translate(227,96)"/>
</svg>
